<svg width="271" height="370" viewBox="0 0 271 370" fill="none" xmlns="http://www.w3.org/2000/svg">
<path d="M40.1333 202.16C39.4153 202.145 38.7336 201.906 38.1629 201.471L19.2914 187.083C18.4229 186.417 17.9413 185.413 17.9633 184.316C17.9852 183.22 18.5149 182.233 19.4134 181.611L80.699 138.999C81.2879 138.589 81.9766 138.375 82.6841 138.394C84.1528 138.427 85.4283 139.396 85.8535 140.801L92.6651 163.571C93.0904 164.976 92.5624 166.487 91.3518 167.328L42.1259 201.558C41.537 201.968 40.8435 202.172 40.1253 202.157L40.1333 202.16Z" fill="#2050F6"/>
<path d="M11.8671 118.956C11.3703 118.437 11.0568 117.786 10.9609 117.075L7.791 93.5568C7.64785 92.4717 8.01683 91.4217 8.808 90.6616C9.59917 89.9015 10.6714 89.5784 11.7466 89.7738L85.2131 102.978C85.9192 103.105 86.558 103.44 87.0443 103.954C88.0597 105.016 88.2767 106.603 87.5838 107.897L76.2992 128.815C75.6065 130.109 74.1651 130.804 72.7141 130.543L13.7019 119.939C12.9959 119.812 12.3609 119.466 11.8634 118.948L11.8671 118.956Z" fill="#212121"/>
<path d="M50.7127 40.1338C50.7281 39.4158 50.9664 38.734 51.4015 38.1634L65.7901 19.2918C66.4561 18.4234 67.4595 17.9418 68.5564 17.9638C69.6534 17.9857 70.64 18.5154 71.2622 19.4139L113.874 80.6995C114.284 81.2884 114.498 81.9771 114.479 82.6846C114.446 84.1533 113.477 85.4288 112.072 85.854L89.3016 92.6655C87.8968 93.0908 86.3863 92.5628 85.5448 91.3523L51.3148 42.1264C50.9053 41.5375 50.7007 40.844 50.7155 40.1258L50.7127 40.1338Z" fill="#212121"/>
<path d="M133.916 11.8671C134.435 11.3703 135.085 11.0568 135.797 10.9609L159.315 7.791C160.4 7.64785 161.45 8.01683 162.21 8.808C162.97 9.59917 163.294 10.6714 163.098 11.7466L149.894 85.2131C149.767 85.9192 149.432 86.558 148.918 87.0443C147.856 88.0597 146.269 88.2767 144.975 87.5838L124.057 76.2992C122.763 75.6065 122.068 74.1651 122.329 72.7141L132.933 13.7019C133.06 12.9959 133.406 12.3609 133.924 11.8634L133.916 11.8671Z" fill="#212121"/>
<path d="M212.739 50.7127C213.457 50.7281 214.139 50.9664 214.709 51.4015L233.581 65.7901C234.449 66.4561 234.931 67.4595 234.909 68.5564C234.887 69.6534 234.357 70.64 233.459 71.2622L172.173 113.874C171.584 114.284 170.896 114.498 170.188 114.479C168.72 114.446 167.444 113.477 167.019 112.072L160.207 89.3016C159.782 87.8968 160.31 86.3863 161.521 85.5448L210.746 51.3148C211.335 50.9053 212.029 50.7007 212.747 50.7155L212.739 50.7127Z" fill="#212121"/>
<path d="M241.007 133.917C241.504 134.436 241.817 135.086 241.913 135.798L245.083 159.316C245.226 160.401 244.857 161.451 244.066 162.211C243.275 162.971 242.202 163.295 241.127 163.099L167.661 149.895C166.955 149.768 166.316 149.433 165.83 148.919C164.814 147.857 164.597 146.27 165.29 144.976L176.575 124.058C177.267 122.764 178.709 122.069 180.16 122.33L239.172 132.934C239.878 133.061 240.513 133.407 241.01 133.925L241.007 133.917Z" fill="#212121"/>
<path d="M202.16 212.739C202.145 213.457 201.906 214.139 201.471 214.709L187.083 233.581C186.417 234.449 185.413 234.931 184.316 234.909C183.22 234.887 182.233 234.357 181.611 233.459L138.999 172.173C138.589 171.584 138.375 170.896 138.394 170.188C138.427 168.72 139.396 167.444 140.801 167.019L163.571 160.207C164.976 159.782 166.487 160.31 167.328 161.521L201.558 210.746C201.968 211.335 202.172 212.029 202.157 212.747L202.16 212.739Z" fill="#212121"/>
<path d="M118.956 241.007C118.437 241.504 117.786 241.818 117.075 241.913L93.5568 245.083C92.4718 245.227 91.4217 244.858 90.6616 244.066C89.9015 243.275 89.5784 242.203 89.7738 241.128L102.978 167.661C103.105 166.955 103.44 166.316 103.954 165.83C105.016 164.815 106.603 164.598 107.897 165.291L128.815 176.575C130.109 177.268 130.804 178.709 130.543 180.16L119.939 239.172C119.812 239.878 119.466 240.513 118.948 241.011L118.956 241.007Z" fill="#212121"/>
<path d="M27.441 280.178L39.486 318.041H39.9483L52.0176 280.178H63.6976L46.5183 330.013H32.9403L15.7367 280.178H27.441Z" fill="#212121"/>
<path d="M73.3798 280.178V330.013H62.8435V280.178H73.3798Z" fill="#212121"/>
<path d="M102.231 294.51C102.036 292.547 101.2 291.023 99.7243 289.936C98.248 288.849 96.2446 288.305 93.7139 288.305C91.9944 288.305 90.5425 288.549 89.3583 289.035C88.1741 289.506 87.2656 290.163 86.633 291.006C86.0165 291.85 85.7083 292.807 85.7083 293.878C85.6758 294.77 85.8624 295.549 86.268 296.214C86.6897 296.879 87.2656 297.455 87.9956 297.941C88.7256 298.412 89.5692 298.825 90.5263 299.182C91.4834 299.523 92.5054 299.815 93.5923 300.058L98.0696 301.129C100.243 301.616 102.239 302.265 104.056 303.076C105.872 303.887 107.446 304.884 108.776 306.069C110.106 307.253 111.137 308.648 111.867 310.254C112.613 311.86 112.994 313.701 113.01 315.778C112.994 318.827 112.215 321.472 110.674 323.71C109.149 325.933 106.943 327.66 104.056 328.893C101.184 330.11 97.7208 330.718 93.6653 330.718C89.6422 330.718 86.1382 330.102 83.1533 328.869C80.1846 327.636 77.8649 325.811 76.194 323.394C74.5393 320.961 73.6714 317.951 73.5903 314.366H83.786C83.8995 316.037 84.3781 317.432 85.2216 318.552C86.0814 319.655 87.2251 320.49 88.6526 321.058C90.0964 321.609 91.7267 321.885 93.5436 321.885C95.328 321.885 96.8773 321.626 98.1913 321.107C99.5215 320.587 100.552 319.866 101.282 318.941C102.012 318.016 102.377 316.954 102.377 315.753C102.377 314.634 102.044 313.693 101.379 312.931C100.73 312.168 99.7729 311.519 98.5076 310.984C97.2585 310.449 95.7255 309.962 93.9086 309.524L88.4823 308.161C84.2807 307.139 80.9633 305.541 78.53 303.368C76.0966 301.194 74.8881 298.266 74.9043 294.583C74.8881 291.566 75.6911 288.93 77.3133 286.675C78.9517 284.42 81.1985 282.66 84.0536 281.395C86.9087 280.129 90.1532 279.497 93.7869 279.497C97.4856 279.497 100.714 280.129 103.472 281.395C106.246 282.66 108.403 284.42 109.944 286.675C111.485 288.93 112.28 291.542 112.329 294.51H102.231Z" fill="#212121"/>
<path d="M111.347 288.865V280.178H152.276V288.865H137.019V330.013H126.604V288.865H111.347Z" fill="#212121"/>
<path d="M152.164 330.013V280.178H171.825C175.589 280.178 178.801 280.851 181.461 282.198C184.138 283.528 186.174 285.418 187.569 287.867C188.98 290.301 189.686 293.164 189.686 296.457C189.686 299.766 188.972 302.613 187.544 304.998C186.117 307.366 184.048 309.183 181.339 310.449C178.646 311.714 175.386 312.347 171.557 312.347H158.393V303.879H169.854C171.866 303.879 173.536 303.603 174.867 303.051C176.197 302.5 177.186 301.672 177.835 300.569C178.5 299.466 178.833 298.095 178.833 296.457C178.833 294.802 178.5 293.407 177.835 292.272C177.186 291.136 176.189 290.276 174.842 289.692C173.512 289.092 171.833 288.792 169.805 288.792H162.7V330.013H152.164ZM179.076 307.334L191.462 330.013H179.831L167.713 307.334H179.076Z" fill="#212121"/>
<path d="M198.869 330.013H187.578L204.782 280.178H218.36L235.539 330.013H224.249L211.766 291.566H211.376L198.869 330.013ZM198.163 310.424H224.833V318.649H198.163V310.424Z" fill="#212121"/>
<path d="M234.685 330.013V280.178H245.222V321.326H266.586V330.013H234.685Z" fill="#212121"/>
<path d="M98.8567 363.55V342.058H102.656V350.096H102.813C103.009 349.705 103.285 349.288 103.642 348.848C103.999 348.4 104.482 348.019 105.09 347.704C105.699 347.382 106.476 347.221 107.42 347.221C108.666 347.221 109.788 347.539 110.789 348.176C111.796 348.806 112.594 349.74 113.182 350.978C113.776 352.209 114.074 353.721 114.074 355.512C114.074 357.282 113.783 358.786 113.203 360.024C112.622 361.263 111.831 362.207 110.831 362.858C109.83 363.508 108.697 363.834 107.431 363.834C106.507 363.834 105.741 363.68 105.132 363.372C104.524 363.064 104.034 362.693 103.663 362.26C103.299 361.819 103.016 361.402 102.813 361.011H102.593V363.55H98.8567ZM102.582 355.491C102.582 356.533 102.729 357.446 103.023 358.23C103.324 359.013 103.754 359.625 104.314 360.066C104.881 360.5 105.566 360.717 106.371 360.717C107.21 360.717 107.913 360.493 108.48 360.045C109.047 359.59 109.474 358.971 109.76 358.188C110.054 357.397 110.201 356.498 110.201 355.491C110.201 354.49 110.058 353.602 109.771 352.825C109.484 352.048 109.057 351.44 108.491 350.999C107.924 350.558 107.217 350.338 106.371 350.338C105.559 350.338 104.87 350.551 104.303 350.978C103.737 351.405 103.306 352.003 103.013 352.773C102.726 353.542 102.582 354.448 102.582 355.491Z" fill="#212121"/>
<path d="M117.934 369.595C117.416 369.595 116.937 369.553 116.496 369.469C116.063 369.392 115.716 369.301 115.458 369.196L116.339 366.237C116.892 366.398 117.385 366.475 117.819 366.468C118.253 366.461 118.634 366.324 118.963 366.059C119.298 365.8 119.582 365.366 119.813 364.757L120.138 363.886L114.293 347.431H118.323L122.038 359.604H122.205L125.931 347.431H129.971L123.517 365.502C123.216 366.356 122.818 367.087 122.321 367.696C121.824 368.311 121.215 368.78 120.495 369.102C119.781 369.431 118.928 369.595 117.934 369.595Z" fill="#212121"/>
<path d="M135.746 340.461H144.606C146.169 340.461 147.528 340.755 148.684 341.343C149.861 341.91 150.77 342.718 151.412 343.768C152.054 344.797 152.375 346.036 152.375 347.485C152.375 348.892 152.054 350.132 151.412 351.202C150.77 352.252 149.861 353.072 148.684 353.66C147.528 354.227 146.169 354.51 144.606 354.51H139.438V362.511H135.746V340.461ZM139.438 343.611V351.36H144.286C145.163 351.36 145.923 351.202 146.565 350.888C147.228 350.572 147.731 350.121 148.074 349.533C148.437 348.945 148.619 348.262 148.619 347.485C148.619 346.687 148.437 346.005 148.074 345.438C147.731 344.85 147.239 344.398 146.597 344.083C145.955 343.768 145.195 343.611 144.318 343.611H139.438Z" fill="#212121"/>
<path d="M154.541 346.383H157.623L158.265 350.383L157.559 349.627C157.858 349.06 158.201 348.535 158.586 348.052C158.993 347.548 159.538 347.149 160.223 346.855C160.908 346.54 161.785 346.383 162.856 346.383H163.626V349.564H162.085C161.058 349.564 160.245 349.795 159.645 350.257C159.046 350.719 158.618 351.318 158.361 352.053C158.126 352.788 158.008 353.575 158.008 354.415V362.511H154.541V346.383Z" fill="#212121"/>
<path d="M171.77 359.802C172.754 359.802 173.599 359.571 174.306 359.109C175.033 358.647 175.6 358.017 176.007 357.219C176.414 356.4 176.617 355.476 176.617 354.447C176.617 353.397 176.414 352.473 176.007 351.675C175.6 350.877 175.033 350.247 174.306 349.785C173.599 349.323 172.754 349.092 171.77 349.092C170.785 349.092 169.929 349.323 169.201 349.785C168.495 350.247 167.939 350.877 167.532 351.675C167.147 352.473 166.954 353.397 166.954 354.447C166.954 355.476 167.147 356.4 167.532 357.219C167.939 358.017 168.495 358.647 169.201 359.109C169.929 359.571 170.785 359.802 171.77 359.802ZM171.77 362.7C170.122 362.7 168.656 362.354 167.371 361.661C166.109 360.968 165.124 360.002 164.418 358.763C163.733 357.523 163.391 356.085 163.391 354.447C163.391 352.809 163.733 351.37 164.418 350.131C165.124 348.892 166.109 347.926 167.371 347.233C168.656 346.54 170.122 346.194 171.77 346.194C173.439 346.194 174.905 346.54 176.168 347.233C177.43 347.926 178.404 348.892 179.089 350.131C179.795 351.37 180.148 352.809 180.148 354.447C180.148 356.085 179.795 357.523 179.089 358.763C178.404 360.002 177.43 360.968 176.168 361.661C174.905 362.354 173.439 362.7 171.77 362.7Z" fill="#212121"/>
<path d="M191.412 346.194C192.91 346.194 194.237 346.519 195.392 347.17C196.57 347.821 197.49 348.766 198.153 350.005C198.838 351.244 199.181 352.725 199.181 354.447C199.181 356.106 198.838 357.555 198.153 358.794C197.49 360.033 196.58 360.999 195.424 361.692C194.269 362.364 192.931 362.7 191.412 362.7C189.913 362.7 188.683 362.385 187.72 361.755C186.757 361.125 186.05 360.348 185.601 359.424L186.083 358.637V368.811H182.615V346.383H185.633L186.307 350.383L185.505 349.596C186.018 348.693 186.746 347.905 187.688 347.233C188.651 346.54 189.892 346.194 191.412 346.194ZM190.834 349.092C189.871 349.092 189.025 349.323 188.298 349.785C187.591 350.226 187.035 350.845 186.628 351.643C186.243 352.42 186.05 353.334 186.05 354.384C186.05 355.455 186.243 356.4 186.628 357.219C187.035 358.038 187.591 358.679 188.298 359.141C189.025 359.603 189.871 359.834 190.834 359.834C191.797 359.834 192.642 359.603 193.37 359.141C194.098 358.679 194.654 358.049 195.039 357.25C195.446 356.431 195.649 355.497 195.649 354.447C195.649 353.376 195.446 352.441 195.039 351.643C194.654 350.845 194.098 350.226 193.37 349.785C192.642 349.323 191.797 349.092 190.834 349.092Z" fill="#212121"/>
<path d="M201.991 340.461H205.683V349.722H216.116V340.461H219.808V362.511H216.116V352.935H205.683V362.511H201.991V340.461Z" fill="#212121"/>
<path d="M231.032 362.7C229.32 362.7 227.832 362.364 226.569 361.692C225.307 360.999 224.333 360.033 223.648 358.794C222.963 357.555 222.621 356.116 222.621 354.478C222.621 352.819 222.953 351.37 223.616 350.131C224.301 348.892 225.253 347.926 226.473 347.233C227.693 346.54 229.105 346.194 230.711 346.194C232.294 346.194 233.675 346.509 234.852 347.139C236.05 347.748 236.981 348.63 237.645 349.785C238.33 350.94 238.694 352.305 238.736 353.88C238.736 354.09 238.726 354.31 238.704 354.541C238.683 354.751 238.662 354.962 238.64 355.171H226.248C226.248 355.192 226.248 355.224 226.248 355.266C226.248 355.308 226.248 355.35 226.248 355.392C226.291 356.295 226.494 357.093 226.858 357.786C227.244 358.458 227.779 358.983 228.463 359.361C229.148 359.739 229.94 359.928 230.839 359.928C231.888 359.928 232.776 359.676 233.504 359.172C234.253 358.668 234.745 357.975 234.98 357.093H238.447C238.255 358.143 237.827 359.099 237.163 359.96C236.521 360.8 235.676 361.472 234.627 361.976C233.6 362.459 232.401 362.7 231.032 362.7ZM226.377 352.683H235.141C234.991 351.486 234.52 350.562 233.728 349.911C232.958 349.26 231.963 348.934 230.743 348.934C230.015 348.934 229.33 349.092 228.688 349.407C228.067 349.701 227.543 350.131 227.115 350.698C226.709 351.244 226.462 351.906 226.377 352.683Z" fill="#212121"/>
<path d="M241.218 346.383H244.299L244.942 350.383L244.235 349.627C244.535 349.06 244.877 348.535 245.262 348.052C245.669 347.548 246.215 347.149 246.9 346.855C247.585 346.54 248.462 346.383 249.532 346.383H250.303V349.564H248.762C247.734 349.564 246.921 349.795 246.322 350.257C245.723 350.719 245.295 351.318 245.038 352.053C244.802 352.788 244.685 353.575 244.685 354.415V362.511H241.218V346.383Z" fill="#212121"/>
<path d="M258.447 359.802C259.432 359.802 260.277 359.571 260.983 359.109C261.711 358.647 262.278 358.017 262.685 357.219C263.091 356.4 263.295 355.476 263.295 354.447C263.295 353.397 263.091 352.473 262.685 351.675C262.278 350.877 261.711 350.247 260.983 349.785C260.277 349.323 259.432 349.092 258.447 349.092C257.463 349.092 256.606 349.323 255.879 349.785C255.173 350.247 254.616 350.877 254.21 351.675C253.824 352.473 253.632 353.397 253.632 354.447C253.632 355.476 253.824 356.4 254.21 357.219C254.616 358.017 255.173 358.647 255.879 359.109C256.606 359.571 257.463 359.802 258.447 359.802ZM258.447 362.7C256.799 362.7 255.333 362.354 254.049 361.661C252.786 360.968 251.802 360.002 251.096 358.763C250.411 357.523 250.068 356.085 250.068 354.447C250.068 352.809 250.411 351.37 251.096 350.131C251.802 348.892 252.786 347.926 254.049 347.233C255.333 346.54 256.799 346.194 258.447 346.194C260.116 346.194 261.582 346.54 262.845 347.233C264.108 347.926 265.082 348.892 265.767 350.131C266.473 351.37 266.826 352.809 266.826 354.447C266.826 356.085 266.473 357.523 265.767 358.763C265.082 360.002 264.108 360.968 262.845 361.661C261.582 362.354 260.116 362.7 258.447 362.7Z" fill="#212121"/>
</svg>
